# xmcd
#
# Track frame offsets:
# 150
# 18999
# 34604
# 49609
# 66107
# 83779
# 100706
# 118323
# 135681
# 153394
# 169541
# 189025
#
# Disc length: 2737 seconds
#
#
# Revision: 0
# Processed by: cddbd v1.5.1PL2 Copyright (c) Steve Scherf et al.
# Submitted via: FreeRIP 2.945 
#
DISCID=8d0aaf0c
DTITLE=Vanilla Ninja - Traces Of Sadness (Ltd. Edition) CD 2
DYEAR=2005
DGENRE=Rock
TTITLE0=Blue Tattoo (Unplugged Version)
TTITLE1=Tough Enough (Unplugged Version)
TTITLE2=Don't Go To Fast (Unplugged Version)
TTITLE3=Liar (Unplugged Version)
TTITLE4=Stay (Unplugged Version)
TTITLE5=Metal Queen (Unplugged Version)
TTITLE6=Destroyed By You (Unplugged Version)
TTITLE7=Don't You Realize (Classical Version)
TTITLE8=Heartless (Classical Version)
TTITLE9=Traces Of Sadness (Classical Version)
TTITLE10=Looking For A Hero (Classical Version)
TTITLE11=Light Of Hope
EXTD=
EXTT0=
EXTT1=
EXTT2=
EXTT3=
EXTT4=
EXTT5=
EXTT6=
EXTT7=
EXTT8=
EXTT9=
EXTT10=
EXTT11=
PLAYORDER=
